<svg xmlns="http://www.w3.org/2000/svg" aria-hidden="true" style="position:absolute;width:0;height:0;overflow:hidden">
    <defs>
        <symbol id="icon-ic_facebook" viewBox="0 0 32 32">
            <path
                d="M29.333 16.033C29.333 8.655 23.36 2.666 16 2.666S2.667 8.654 2.667 16.033c0 6.469 4.587 11.856 10.667 13.099v-9.089h-2.667v-4.01h2.667v-3.342a4.677 4.677 0 0 1 4.667-4.678h3.333v4.01h-2.667c-.733 0-1.333.601-1.333 1.337v2.673h4v4.01h-4v9.29c6.733-.668 12-6.363 12-13.3z" />
        </symbol>
        <symbol id="icon-ic_youtube" viewBox="0 0 32 32">
            <path
                d="m18.226 15.768-3.119-1.455c-.272-.126-.496.015-.496.317v2.742c0 .301.224.443.496.317l3.118-1.455c.274-.128.274-.336.001-.464zM16 2.667C8.636 2.667 2.667 8.636 2.667 16S8.636 29.333 16 29.333 29.333 23.364 29.333 16 23.364 2.667 16 2.667zm0 18.75c-6.825 0-6.944-.615-6.944-5.417s.119-5.417 6.944-5.417 6.944.615 6.944 5.417-.119 5.417-6.944 5.417z" />
        </symbol>
        <symbol id="icon-ic_instagram" viewBox="0 0 32 32">
            <path
                d="M21.179 4H9.487a6.829 6.829 0 0 0-6.821 6.821v11.692a6.829 6.829 0 0 0 6.821 6.821h11.692A6.829 6.829 0 0 0 28 22.513V10.821A6.829 6.829 0 0 0 21.179 4zm-5.846 18.513a5.849 5.849 0 0 1-5.401-3.609c-.442-1.068-.558-2.244-.333-3.378s.782-2.176 1.6-2.993a5.847 5.847 0 0 1 9.98 4.134 5.854 5.854 0 0 1-5.846 5.846zm7.308-11.693a1.465 1.465 0 0 1-1.35-.902c-.111-.267-.14-.561-.083-.844a1.468 1.468 0 0 1 1.148-1.148 1.469 1.469 0 0 1 1.5.621 1.457 1.457 0 0 1-.182 1.845 1.462 1.462 0 0 1-1.033.428zm-3.41 5.847a3.898 3.898 0 1 1-7.797-.002 3.898 3.898 0 0 1 7.797.002z" />
        </symbol>
    </defs>
</svg>
<svg xmlns="http://www.w3.org/2000/svg" xmlns:xlink="http://www.w3.org/1999/xlink" aria-hidden="true" role="img"
    class="iconify iconify--logos" width="32" height="32" preserveAspectRatio="xMidYMid meet" viewBox="0 0 256 256">
    <path fill="#F7DF1E" d="M0 0h256v256H0V0Z"></path>
    <path
        d="m67.312 213.932l19.59-11.856c3.78 6.701 7.218 12.371 15.465 12.371c7.905 0 12.89-3.092 12.89-15.12v-81.798h24.057v82.138c0 24.917-14.606 36.259-35.916 36.259c-19.245 0-30.416-9.967-36.087-21.996m85.07-2.576l19.588-11.341c5.157 8.421 11.859 14.607 23.715 14.607c9.969 0 16.325-4.984 16.325-11.858c0-8.248-6.53-11.17-17.528-15.98l-6.013-2.58c-17.357-7.387-28.87-16.667-28.87-36.257c0-18.044 13.747-31.792 35.228-31.792c15.294 0 26.292 5.328 34.196 19.247l-18.732 12.03c-4.125-7.389-8.591-10.31-15.465-10.31c-7.046 0-11.514 4.468-11.514 10.31c0 7.217 4.468 10.14 14.778 14.608l6.014 2.577c20.45 8.765 31.963 17.7 31.963 37.804c0 21.654-17.012 33.51-39.867 33.51c-22.339 0-36.774-10.654-43.819-24.574">
    </path>
</svg>